<?xml version="1.0" encoding="UTF-8"?>
<svg version="1.1" xmlns="http://www.w3.org/2000/svg" width="600" height="315">
<path d="M0 0 C198 0 396 0 600 0 C600 103.95 600 207.9 600 315 C402 315 204 315 0 315 C0 211.05 0 107.1 0 0 Z " fill="#FEFEFE" transform="translate(0,0)"/>
<path d="M0 0 C0 15.51 0 31.02 0 47 C-3.63 47.33 -7.26 47.66 -11 48 C-15.99206674 51.04394314 -15.4465026 53.78601041 -17 60 C5.77 60 28.54 60 52 60 C52.33 79.47 52.66 98.94 53 119 C54.32 119.66 55.64 120.32 57 121 C57.495 90.805 57.495 90.805 58 60 C73.18 60 88.36 60 104 60 C104.12032643 85.22398454 104.12032643 85.22398454 104.14648438 96.02734375 C104.16437461 103.38108871 104.18547356 110.73472094 104.22631836 118.08837891 C104.25906264 124.02117392 104.27688474 129.95384793 104.28463173 135.88672638 C104.29014826 138.14319003 104.3009203 140.39964753 104.31719017 142.65605927 C104.41821969 157.25636625 104.180232 169.96346285 97.3125 183.1875 C96.78922119 184.20638306 96.78922119 184.20638306 96.25537109 185.24584961 C89.27788742 198.35643804 77.94372783 207.0426427 64 212 C57.56384395 213.84048836 51.36351956 214.38541214 44.6875 214.375 C43.31416504 214.37584595 43.31416504 214.37584595 41.91308594 214.37670898 C35.3185927 214.26998876 25.99050336 213.99050336 21 209 C20.91128727 205.97022196 20.8848065 202.96332978 20.90234375 199.93359375 C20.90446617 198.57065941 20.90446617 198.57065941 20.90663147 197.18019104 C20.91224807 194.26592779 20.92480335 191.35174019 20.9375 188.4375 C20.94251286 186.46679798 20.94707614 184.49609476 20.95117188 182.52539062 C20.96222289 177.68356441 20.97949862 172.84179505 21 168 C22.45903258 168.30921884 23.91720722 168.62248799 25.375 168.9375 C26.18710937 169.11152344 26.99921875 169.28554687 27.8359375 169.46484375 C30 170 30 170 32 171 C40.74577049 171.91233493 40.74577049 171.91233493 48.75 169.0625 C50.39736315 167.55460659 50.39736315 167.55460659 52 166 C50.73285156 166.04640625 49.46570313 166.0928125 48.16015625 166.140625 C35.63976084 166.46746014 27.33269907 165.82336288 17.8515625 156.984375 C9.78709218 148.34144056 5.85819349 138.27512237 5.88647461 126.45361328 C5.88655014 125.39296661 5.88662567 124.33231995 5.88670349 123.23953247 C5.89186478 122.11118988 5.89702606 120.98284729 5.90234375 119.8203125 C5.90446617 118.06846146 5.90446617 118.06846146 5.90663147 116.28121948 C5.91221502 112.56245326 5.92476456 108.84374793 5.9375 105.125 C5.94251712 102.5989592 5.94707966 100.07291746 5.95117188 97.546875 C5.96132683 91.36454118 5.98090561 85.1823385 6 79 C-1.59 79 -9.18 79 -17 79 C-17 108.04 -17 137.08 -17 167 C-32.18 167 -47.36 167 -63 167 C-63 137.96 -63 108.92 -63 79 C-71.91 79 -80.82 79 -90 79 C-89.94887567 83.75200614 -89.88585307 88.50077626 -89.79248047 93.25170898 C-89.76431814 94.86651089 -89.74308 96.48144943 -89.72900391 98.09643555 C-89.70750742 100.42307237 -89.66082789 102.74807477 -89.609375 105.07421875 C-89.60814636 105.79212082 -89.60691772 106.51002289 -89.60565186 107.24967957 C-89.46538804 112.08903205 -88.43574046 114.59681628 -85 118 C-81.07854902 119.96072549 -76.36631 119.60306273 -72 120 C-72 135.84 -72 151.68 -72 168 C-91.14158199 168 -105.85617689 165.46162935 -119.93359375 152.265625 C-130.677021 140.48644201 -135.35187948 126.46983065 -135.22705078 110.79858398 C-135.22748886 109.33357704 -135.22748886 109.33357704 -135.22793579 107.838974 C-135.22655302 104.64125386 -135.21104169 101.44377271 -135.1953125 98.24609375 C-135.19157863 96.01693346 -135.18873342 93.78777153 -135.18673706 91.55860901 C-135.17913011 85.71429856 -135.15950698 79.87008877 -135.1373291 74.02581787 C-135.11319398 67.00142242 -135.1040757 59.97699317 -135.09242249 52.95256805 C-135.07308081 42.30164219 -135.03473761 31.65093687 -135 21 C-119.82 21 -104.64 21 -89 21 C-89 33.54 -89 46.08 -89 59 C-80.42 59 -71.84 59 -63 59 C-63 56.03 -63 53.06 -63 50 C-61.14374911 35.32910484 -55.47078486 24.3227879 -45 14 C-44.43539062 13.42507812 -43.87078125 12.85015625 -43.2890625 12.2578125 C-30.9082253 0.60170724 -16.54450516 0 0 0 Z " fill="#212A81" transform="translate(316,35)"/>
<path d="M0 0 C9.24 0 18.48 0 28 0 C28.04530191 11.80532946 28.08194554 23.61060056 28.10362434 35.41599751 C28.11403248 40.89853983 28.12813714 46.38101926 28.15087891 51.86352539 C28.17271355 57.16089173 28.18459094 62.45819781 28.18975449 67.7556057 C28.19343124 69.77006159 28.20061072 71.78451444 28.21146011 73.79894447 C28.31389617 93.61843722 26.84706667 109.97033098 12.296875 124.88671875 C1.2706199 135.03162353 -11.59400335 138.58897228 -26.24609375 138.46875 C-30 138 -30 138 -38 135 C-38 127.41 -38 119.82 -38 112 C-35.73125 112.0825 -33.4625 112.165 -31.125 112.25 C-23.37560576 112.32717518 -17.04543574 111.38941913 -10.9765625 106.3046875 C-4.00111453 99.03491684 -1.65885094 89.46712077 1 80 C-0.09699219 80.63808594 -1.19398438 81.27617187 -2.32421875 81.93359375 C-3.77843548 82.76859562 -5.23287431 83.60321077 -6.6875 84.4375 C-7.40873047 84.85837891 -8.12996094 85.27925781 -8.87304688 85.71289062 C-16.73104764 90.19805088 -25.31355579 91.69741637 -34.27734375 89.421875 C-41.78281686 86.15216394 -47.05645406 79.72147736 -50.09179688 72.27441406 C-52.62240405 65.13241896 -52.50624144 58.19708756 -52.390625 50.70703125 C-52.38314559 49.26544488 -52.37746072 47.82384819 -52.37347412 46.38224792 C-52.35835102 42.62558907 -52.31918872 38.86956914 -52.2746582 35.11315918 C-52.22613628 30.58596751 -52.20810777 26.05855973 -52.18484497 21.53118134 C-52.14632556 14.68701265 -52.06958279 7.84424014 -52 1 C-42.76 1 -33.52 1 -24 1 C-23.97421875 4.68414062 -23.9484375 8.36828125 -23.921875 12.1640625 C-23.88344497 15.73852121 -23.83828757 19.31283615 -23.79248047 22.88720703 C-23.76428304 25.36825681 -23.74306245 27.84939622 -23.72900391 30.33056641 C-23.70755838 33.90053147 -23.66089658 37.46942028 -23.609375 41.0390625 C-23.60814636 42.14553131 -23.60691772 43.25200012 -23.60565186 44.39199829 C-23.4891585 50.53978918 -23.19129521 54.36405807 -19 59 C-15.32412221 61.45058519 -12.27019956 61.82568312 -8 61 C-4.68122034 58.40269418 -2.59471299 55.87363461 -1 52 C-0.67544246 49.49745932 -0.67544246 49.49745932 -0.68115234 46.77246094 C-0.66128265 45.73168396 -0.64141296 44.69090698 -0.62094116 43.61859131 C-0.60938995 42.50179993 -0.59783875 41.38500854 -0.5859375 40.234375 C-0.56657135 39.08584045 -0.5472052 37.93730591 -0.5272522 36.75396729 C-0.46747874 33.0860537 -0.42107936 29.41810871 -0.375 25.75 C-0.33681822 23.26300716 -0.29776638 20.77602751 -0.2578125 18.2890625 C-0.1601417 12.19277703 -0.08055355 6.09663194 0 0 Z " fill="#FDFDFE" transform="translate(383,103)"/>
<path d="M0 0 C0 10.23 0 20.46 0 31 C-4.455 32.485 -4.455 32.485 -9 34 C-16.52287692 40.92896559 -16.25325209 50.29227714 -17 60 C-6.44 60 4.12 60 15 60 C15 60.99 15 61.98 15 63 C4.77 63 -5.46 63 -16 63 C-16 91.71 -16 120.42 -16 150 C-25.57 150 -35.14 150 -45 150 C-45.09055311 135.4738882 -45.16386167 120.94796545 -45.20724869 106.42163467 C-45.22780905 99.67568045 -45.25580329 92.92991502 -45.30175781 86.18408203 C-45.3453823 79.66773233 -45.36917238 73.15157821 -45.37950897 66.63509369 C-45.38687053 64.15533115 -45.4012456 61.6755787 -45.42292023 59.19589996 C-45.4521741 55.7088195 -45.45594673 52.22253599 -45.45410156 48.73535156 C-45.46848267 47.72186142 -45.48286377 46.70837128 -45.49768066 45.66416931 C-45.42118726 32.20784559 -40.27693082 21.45712149 -30.94921875 11.8984375 C-21.70946161 3.46603778 -12.56231834 0 0 0 Z " fill="#FAFAFC" transform="translate(307,43)"/>
<path d="M0 0 C9.57 0 19.14 0 29 0 C29 12.54 29 25.08 29 38 C40.55 38 52.1 38 64 38 C64 38.66 64 39.32 64 40 C52.45 40 40.9 40 29 40 C29.07429966 45.67495687 29.15739854 51.34842363 29.26245117 57.02270508 C29.295539 58.94970769 29.32362028 60.87680346 29.34643555 62.80395508 C29.38028037 65.58715209 29.4326086 68.36950771 29.48828125 71.15234375 C29.49467117 72.00271713 29.5010611 72.85309052 29.50764465 73.72923279 C29.6774521 80.76520481 30.88163393 87.13397532 35.125 92.875 C38.70624317 95.75139114 38.70624317 95.75139114 47 98 C47 108.23 47 118.46 47 129 C33.16816184 129 23.34761098 125.2708987 13.1875 115.75 C3.30064805 105.35747132 -0.17784273 91.42441666 -0.11352539 77.42431641 C-0.11367142 76.58463318 -0.11381744 75.74494995 -0.1139679 74.87982178 C-0.11327445 72.12037521 -0.10550874 69.36099719 -0.09765625 66.6015625 C-0.09579005 64.68199704 -0.0943671 62.7624311 -0.09336853 60.84286499 C-0.08955925 55.8024564 -0.07974257 50.76207684 -0.06866455 45.72167969 C-0.05841623 40.5735717 -0.05386359 35.42545901 -0.04882812 30.27734375 C-0.03811883 20.18488106 -0.02053494 10.09244749 0 0 Z " fill="#FBFBFC" transform="translate(189,65)"/>
<path d="M0 0 C3.5426931 0.02820616 4.63090304 0.2380644 7.75 2.1875 C11.26487778 5.92205764 11.02590722 8.88078746 10.96875 13.83203125 C10.68537507 17.04530049 9.87264382 18.88662135 7.75 21.3125 C4.76158633 23.63682174 1.45297381 23.78366644 -2.28125 23.70703125 C-5.63693026 23.03456358 -7.20936396 20.90967314 -9.25 18.3125 C-11.10598295 14.60053409 -10.84092637 10.35367386 -10.25 6.3125 C-7.8125 3.25 -7.8125 3.25 -5.25 1.3125 C-3.69014791 -0.24735209 -2.16093902 0.06797656 0 0 Z " fill="#2C3587" transform="translate(304.25,276.6875)"/>
<path d="M0 0 C0 0.99 0 1.98 0 3 C-1.98 3 -3.96 3 -6 3 C-6.33 5.31 -6.66 7.62 -7 10 C-3.7 10 -0.4 10 3 10 C3.81381795 11.93694678 4.62600916 13.87457711 5.4375 15.8125 C6.11619141 17.43091797 6.11619141 17.43091797 6.80859375 19.08203125 C7.60375013 21.0295126 8.33479648 23.00438943 9 25 C9.26554687 24.33613281 9.53109375 23.67226563 9.8046875 22.98828125 C11.53645833 18.65885417 13.26822917 14.32942708 15 10 C16.32 10 17.64 10 19 10 C17.02542683 20.77039909 12.94911598 34.8188801 4 42 C2.68 42 1.36 42 0 42 C0.1875 40.25 0.1875 40.25 1 38 C1.86625 37.401875 2.7325 36.80375 3.625 36.1875 C6.3456882 34.19865131 6.3456882 34.19865131 6.125 31 C5.09477053 26.31806606 2.99198892 21.93941974 1.05859375 17.57421875 C0 15 0 15 0 13 C-2.31 13.33 -4.62 13.66 -7 14 C-7 20.27 -7 26.54 -7 33 C-8.32 33 -9.64 33 -11 33 C-11 26.4 -11 19.8 -11 13 C-11.99 13 -12.98 13 -14 13 C-14 12.34 -14 11.68 -14 11 C-13.01 11 -12.02 11 -11 11 C-11.061875 9.9275 -11.12375 8.855 -11.1875 7.75 C-11 4 -11 4 -10 1.5625 C-6.81039012 -0.92938272 -3.96543085 -0.26002825 0 0 Z " fill="#283185" transform="translate(396,267)"/>
<path d="M0 0 C1.32 0 2.64 0 4 0 C4.33 0.66 4.66 1.32 5 2 C5.66 1.34 6.32 0.68 7 0 C10.79877599 -0.35173852 13.14360153 -0.52701444 16.4375 1.5 C16.953125 1.995 17.46875 2.49 18 3 C18.37125 2.505 18.7425 2.01 19.125 1.5 C21 0 21 0 23.9375 -0.4375 C27.66427799 0.09489686 28.73122317 1.058993 31 4 C32.25433458 7.76300374 32.10695422 11.27210909 32.0625 15.1875 C32.05798828 15.93708984 32.05347656 16.68667969 32.04882812 17.45898438 C32.03706354 19.30602383 32.01912865 21.15302213 32 23 C30.35 23 28.7 23 27 23 C26.67 17.06 26.34 11.12 26 5 C23.525 4.505 23.525 4.505 21 4 C17.97906785 7.02093215 18.53323166 10.56372072 18.375 14.625 C18.33632813 15.42679687 18.29765625 16.22859375 18.2578125 17.0546875 C18.16346069 19.03607556 18.08063785 21.01800645 18 23 C16.68 23 15.36 23 14 23 C13.67 16.73 13.34 10.46 13 4 C11.02 4 9.04 4 7 4 C4.51955685 7.72066472 4.55618827 10.86540474 4.375 15.1875 C4.33632813 15.93708984 4.29765625 16.68667969 4.2578125 17.45898438 C4.16371784 19.30559199 4.08077681 21.1527619 4 23 C2.68 23 1.36 23 0 23 C0 15.41 0 7.82 0 0 Z " fill="#555B9D" transform="translate(335,277)"/>
<path d="M0 0 C0.77085937 -0.03738281 1.54171875 -0.07476562 2.3359375 -0.11328125 C4.625 0.3125 4.625 0.3125 6.8984375 1.75390625 C9.48640486 5.58901625 9.05827482 9.05111987 8.875 13.5625 C8.85695312 14.40296875 8.83890625 15.2434375 8.8203125 16.109375 C8.77330798 18.17757395 8.70156724 20.24518441 8.625 22.3125 C8.00625 22.10625 7.3875 21.9 6.75 21.6875 C6.04875 21.56375 5.3475 21.44 4.625 21.3125 C3.965 21.9725 3.305 22.6325 2.625 23.3125 C-4.48159898 23.98931895 -4.48159898 23.98931895 -7.4375 21.75 C-8.79463883 18.22143904 -8.36015877 15.92474884 -7.375 12.3125 C-5.8125 10.375 -5.8125 10.375 -3.375 9.3125 C-0.65465004 9.08363691 1.88446073 9.17547304 4.625 9.3125 C3.965 7.6625 3.305 6.0125 2.625 4.3125 C-0.345 4.3125 -3.315 4.3125 -6.375 4.3125 C-6.375 3.3225 -6.375 2.3325 -6.375 1.3125 C-4.07513269 0.16256634 -2.56030912 0.0808071 0 0 Z " fill="#1F287F" transform="translate(223.375,276.6875)"/>
<path d="M0 0 C1.32 0 2.64 0 4 0 C4.33 0.66 4.66 1.32 5 2 C5.99 1.34 6.98 0.68 8 0 C11.38568806 -0.36017958 13.3272019 -0.38185838 16.3125 1.3125 C18.34953974 3.34953974 18.94208306 5.0301093 19.11352539 7.90112305 C19.10828857 8.59761963 19.10305176 9.29411621 19.09765625 10.01171875 C19.09443359 10.76904297 19.09121094 11.52636719 19.08789062 12.30664062 C19.07951172 13.09232422 19.07113281 13.87800781 19.0625 14.6875 C19.05798828 15.48478516 19.05347656 16.28207031 19.04882812 17.10351562 C19.0370585 19.06904257 19.01912348 21.03453085 19 23 C17.68 23 16.36 23 15 23 C14.95101562 21.79601562 14.90203125 20.59203125 14.8515625 19.3515625 C14.77653657 17.77601802 14.70098867 16.20049834 14.625 14.625 C14.5940625 13.8309375 14.563125 13.036875 14.53125 12.21875 C14.48183579 7.63332625 14.48183579 7.63332625 12 4 C8.93008319 4.16442277 8.93008319 4.16442277 6 5 C4.414131 8.171738 4.62133555 11.63513822 4.4375 15.125 C4.39431641 15.87910156 4.35113281 16.63320313 4.30664062 17.41015625 C4.2005168 19.27321888 4.09974999 21.13658524 4 23 C2.68 23 1.36 23 0 23 C0 15.41 0 7.82 0 0 Z " fill="#2A3185" transform="translate(239,277)"/>
<path d="M0 0 C1.85625 0.1546875 1.85625 0.1546875 3.75 0.3125 C3.75 1.3025 3.75 2.2925 3.75 3.3125 C1.77 3.6425 -0.21 3.9725 -2.25 4.3125 C-2.58 6.2925 -2.91 8.2725 -3.25 10.3125 C-1.6 10.3125 0.05 10.3125 1.75 10.3125 C1.75 11.6325 1.75 12.9525 1.75 14.3125 C0.1 14.3125 -1.55 14.3125 -3.25 14.3125 C-3.25 20.5825 -3.25 26.8525 -3.25 33.3125 C-4.9 33.3125 -6.55 33.3125 -8.25 33.3125 C-8.25 27.0425 -8.25 20.7725 -8.25 14.3125 C-9.24 14.3125 -10.23 14.3125 -11.25 14.3125 C-11.25 12.9925 -11.25 11.6725 -11.25 10.3125 C-10.26 10.3125 -9.27 10.3125 -8.25 10.3125 C-8.3325 9.590625 -8.415 8.86875 -8.5 8.125 C-8.01170701 2.63170389 -5.43377055 0 0 0 Z " fill="#676EA7" transform="translate(290.25,266.6875)"/>
<path d="M0 0 C3.0625 0.5 3.0625 0.5 5.4375 1.9375 C7.84067914 5.72712864 7.83811987 9.13413972 7.0625 13.5 C5.5 16.125 5.5 16.125 3.0625 17.5 C-0.5625 17.5 -0.5625 17.5 -3.9375 16.5 C-6.49610411 13.71890857 -6.2986481 10.03384588 -6.18359375 6.40625 C-5.63417261 2.15041644 -4.15972204 0.70803779 0 0 Z " fill="#F5F5F8" transform="translate(303.9375,279.5)"/>
<path d="M0 0 C0.99 0 1.98 0 3 0 C3 1.98 3 3.96 3 6 C4.65 6 6.3 6 8 6 C8 7.32 8 8.64 8 10 C6.35 10 4.7 10 3 10 C3.33 14.95 3.66 19.9 4 25 C5.32 25.33 6.64 25.66 8 26 C8 26.99 8 27.98 8 29 C4.6875 29.25 4.6875 29.25 1 29 C-1.76759851 26.53432133 -1.99550108 25.05638652 -2.29296875 21.328125 C-2.27316751 19.96843965 -2.23759202 18.6089066 -2.1875 17.25 C-2.17396484 16.55261719 -2.16042969 15.85523438 -2.14648438 15.13671875 C-2.1112945 13.42414459 -2.05749155 11.71197059 -2 10 C-2.99 10 -3.98 10 -5 10 C-5 8.68 -5 7.36 -5 6 C-3.68 6 -2.36 6 -1 6 C-1.020625 5.195625 -1.04125 4.39125 -1.0625 3.5625 C-1 1 -1 1 0 0 Z " fill="#434B94" transform="translate(190,271)"/>
<path d="M0 0 C0.66 0.33 1.32 0.66 2 1 C2 1.99 2 2.98 2 4 C-0.31 4 -2.62 4 -5 4 C-5 5.32 -5 6.64 -5 8 C-3.23322008 9.32436586 -3.23322008 9.32436586 -1 10.3125 C1.203125 11.57421875 1.203125 11.57421875 3 13 C3.75 16.625 3.75 16.625 3 20 C1.5625 21.9375 1.5625 21.9375 -1 23 C-4.01821114 23.22857365 -6.98012655 23.17422347 -10 23 C-10 21.68 -10 20.36 -10 19 C-7.36 19 -4.72 19 -2 19 C-1.67 17.35 -1.34 15.7 -1 14 C-1.928125 13.731875 -2.85625 13.46375 -3.8125 13.1875 C-8.40883978 11.47513812 -8.40883978 11.47513812 -10 9 C-10.38976435 5.88188517 -10.50422245 3.88980433 -8.9375 1.125 C-5.96164925 -0.60291334 -3.36405631 -0.24465864 0 0 Z " fill="#262F83" transform="translate(274,277)"/>
<path d="M0 0 C1.32 0 2.64 0 4 0 C4.33 0.66 4.66 1.32 5 2 C5.66 1.34 6.32 0.68 7 0 C8.32 0 9.64 0 11 0 C11 1.32 11 2.64 11 4 C9.35 4.66 7.7 5.32 6 6 C5.67 11.61 5.34 17.22 5 23 C3.35 23 1.7 23 0 23 C0 15.41 0 7.82 0 0 Z " fill="#474E96" transform="translate(202,277)"/>
<path d="M0 0 C1.32 0 2.64 0 4 0 C4.33 0.66 4.66 1.32 5 2 C5.66 1.34 6.32 0.68 7 0 C8.32 0 9.64 0 11 0 C11 1.32 11 2.64 11 4 C9.35 4.66 7.7 5.32 6 6 C5.67 11.61 5.34 17.22 5 23 C3.35 23 1.7 23 0 23 C0 15.41 0 7.82 0 0 Z " fill="#4F569B" transform="translate(320,277)"/>
<path d="M0 0 C2.84780619 2.23206431 3.84997666 3.54992999 5 7 C5.07051114 9.73865287 5.09357765 12.45027588 5.0625 15.1875 C5.05798828 15.93708984 5.05347656 16.68667969 5.04882812 17.45898438 C5.03706354 19.30602383 5.01912865 21.15302213 5 23 C3.35 23 1.7 23 0 23 C-0.33 17.06 -0.66 11.12 -1 5 C-5.64045375 3.90194193 -5.64045375 3.90194193 -9 4 C-8.67 3.01 -8.34 2.02 -8 1 C-5.15916359 -0.42041821 -3.14522722 -0.31452272 0 0 Z " fill="#565C9E" transform="translate(362,277)"/>
<path d="M0 0 C1.32 0 2.64 0 4 0 C4 0.99 4 1.98 4 3 C4.99 3.33 5.98 3.66 7 4 C6.01 5.485 6.01 5.485 5 7 C4.69933846 9.75417318 4.49074701 12.42645147 4.375 15.1875 C4.33632812 15.93708984 4.29765625 16.68667969 4.2578125 17.45898438 C4.16371784 19.30559199 4.08077681 21.1527619 4 23 C2.68 23 1.36 23 0 23 C0 15.41 0 7.82 0 0 Z " fill="#333B8A" transform="translate(239,277)"/>
<path d="M0 0 C1.65 0.99 3.3 1.98 5 3 C4.67 9.27 4.34 15.54 4 22 C2.68 22 1.36 22 0 22 C-0.19696449 18.89635771 -0.38093262 15.79207808 -0.5625 12.6875 C-0.61857422 11.80642578 -0.67464844 10.92535156 -0.73242188 10.01757812 C-0.78076172 9.17001953 -0.82910156 8.32246094 -0.87890625 7.44921875 C-0.9260376 6.66893311 -0.97316895 5.88864746 -1.02172852 5.0847168 C-1 3 -1 3 0 0 Z " fill="#283185" transform="translate(349,278)"/>
<path d="M0 0 C0.33 0 0.66 0 1 0 C1.92449827 5.97157399 1.9888273 11.48241459 1.5625 17.5 C1.51029297 18.32242187 1.45808594 19.14484375 1.40429688 19.9921875 C1.27619538 21.99522899 1.13904939 23.99768871 1 26 C0.01 26 -0.98 26 -2 26 C-2 19.73 -2 13.46 -2 7 C-2.99 7 -3.98 7 -5 7 C-5 6.34 -5 5.68 -5 5 C-4.01 5 -3.02 5 -2 5 C-1.7834375 4.0409375 -1.7834375 4.0409375 -1.5625 3.0625 C-1 1 -1 1 0 0 Z " fill="#18227D" transform="translate(285,273)"/>
<path d="M0 0 C0.36190476 5.42857143 0.36190476 5.42857143 -1.1875 7.875 C-3.61758081 9.38332602 -5.19015752 9.36023622 -8 9 C-8.66 8.34 -9.32 7.68 -10 7 C-9.8125 4.5 -9.8125 4.5 -9 2 C-5.5647952 -0.29013653 -4.014669 -0.17842973 0 0 Z " fill="#E1E2EC" transform="translate(229,288)"/>
<path d="M0 0 C1.32 0 2.64 0 4 0 C2.62820313 7.48252838 0.07836721 14.05604954 -3 21 C-3.33 20.01 -3.66 19.02 -4 18 C-4.66 17.67 -5.32 17.34 -6 17 C-4.02 11.39 -2.04 5.78 0 0 Z " fill="#2C3488" transform="translate(411,277)"/>
<path d="M0 0 C1.32 0 2.64 0 4 0 C3.67 2.31 3.34 4.62 3 7 C4.98 7.66 6.96 8.32 9 9 C9 9.99 9 10.98 9 12 C1.63729632 12.48280024 1.63729632 12.48280024 -1.0625 10.4375 C-2.38015596 7.0115945 -1.79870221 4.52760143 -1 1 C-0.67 0.67 -0.34 0.34 0 0 Z " fill="#313A8A" transform="translate(217,288)"/>
<path d="M0 0 C0.99 0.33 1.98 0.66 3 1 C3.47952345 7.35368578 3.47952345 7.35368578 1.5625 9.9375 C-2.25901854 11.52203208 -5.91862491 11.23546395 -10 11 C-10 9.68 -10 8.36 -10 7 C-7.36 7 -4.72 7 -2 7 C-1.34 4.69 -0.68 2.38 0 0 Z " fill="#363D8B" transform="translate(274,289)"/>
<path d="M0 0 C0.66 0 1.32 0 2 0 C2 0.99 2 1.98 2 3 C2.66 3 3.32 3 4 3 C3.67 8.94 3.34 14.88 3 21 C2.01 21 1.02 21 0 21 C0 14.07 0 7.14 0 0 Z " fill="#19227D" transform="translate(336,278)"/>
<path d="M0 0 C3.3 0 6.6 0 10 0 C14.18461538 8.12307692 14.18461538 8.12307692 13.25 12.5625 C12.8375 13.366875 12.425 14.17125 12 15 C10.20931427 12.3139714 9.33944209 10.3373411 8.375 7.3125 C8.11460937 6.50425781 7.85421875 5.69601562 7.5859375 4.86328125 C7.29589844 3.94095703 7.29589844 3.94095703 7 3 C6.34 3 5.68 3 5 3 C5 2.34 5 1.68 5 1 C3.35 1 1.7 1 0 1 C0 0.67 0 0.34 0 0 Z " fill="#424A92" transform="translate(389,277)"/>
<path d="M0 0 C0.99 0 1.98 0 3 0 C3 6.93 3 13.86 3 21 C2.01 21 1.02 21 0 21 C0 14.07 0 7.14 0 0 Z " fill="#18217D" transform="translate(374,278)"/>
<path d="M0 0 C2.5625 2 2.5625 2 4 4 C3.67 4.66 3.34 5.32 3 6 C2.67 5.67 2.34 5.34 2 5 C1.01 6.485 1.01 6.485 0 8 C-0.66 6.68 -1.32 5.36 -2 4 C-4.97 4 -7.94 4 -11 4 C-11 3.01 -11 2.02 -11 1 C-7.55789151 -0.72105424 -3.76366353 -0.51474617 0 0 Z " fill="#373F8D" transform="translate(228,277)"/>
<path d="M0 0 C0.66 0 1.32 0 2 0 C2 5.28 2 10.56 2 16 C1.01 16 0.02 16 -1 16 C-1.02685095 13.52076199 -1.04676547 11.0418116 -1.0625 8.5625 C-1.07506836 7.50192383 -1.07506836 7.50192383 -1.08789062 6.41992188 C-1.09653588 4.61306441 -1.05220011 2.80612397 -1 1 C-0.67 0.67 -0.34 0.34 0 0 Z " fill="#18217D" transform="translate(364,283)"/>
<path d="M0 0 C1.32 0 2.64 0 4 0 C4 1.32 4 2.64 4 4 C-2.625 7 -2.625 7 -6 7 C-6 5.02 -6 3.04 -6 1 C-5.38125 1.20625 -4.7625 1.4125 -4.125 1.625 C-3.073125 1.810625 -3.073125 1.810625 -2 2 C-1.34 1.34 -0.68 0.68 0 0 Z " fill="#232C82" transform="translate(327,277)"/>
<path d="M0 0 C2.01822917 0.06510417 4.03645833 0.13020833 6.0546875 0.1953125 C6.0546875 1.1853125 6.0546875 2.1753125 6.0546875 3.1953125 C4.0746875 3.1953125 2.0946875 3.1953125 0.0546875 3.1953125 C-0.2753125 3.8553125 -0.6053125 4.5153125 -0.9453125 5.1953125 C-1.6053125 5.1953125 -2.2653125 5.1953125 -2.9453125 5.1953125 C-3.6053125 6.1853125 -4.2653125 7.1753125 -4.9453125 8.1953125 C-3.92779658 0.39435709 -3.92779658 0.39435709 0 0 Z " fill="#383F8D" transform="translate(389.9453125,266.8046875)"/>
<path d="M0 0 C0.66 0 1.32 0 2 0 C3.61949011 2.57213134 4.04408751 3.67669159 3.625 6.75 C3.41875 7.4925 3.2125 8.235 3 9 C2.34 9 1.68 9 1 9 C-1.125 3.375 -1.125 3.375 0 0 Z " fill="#262F84" transform="translate(295,288)"/>
<path d="M0 0 C3.3 0 6.6 0 10 0 C9.67 1.32 9.34 2.64 9 4 C6.03 4 3.06 4 0 4 C0 2.68 0 1.36 0 0 Z " fill="#383F8C" transform="translate(264,296)"/>
<path d="M0 0 C0.33 1.32 0.66 2.64 1 4 C1.2475 4.825 1.495 5.65 1.75 6.5 C2 9 2 9 0.5625 11.3125 C0.046875 11.869375 -0.46875 12.42625 -1 13 C-1 12.01 -1 11.02 -1 10 C-1.66 9.67 -2.32 9.34 -3 9 C-2.01 6.03 -1.02 3.06 0 0 Z " fill="#3C438F" transform="translate(408,285)"/>
<path d="M0 0 C1.485 0.99 1.485 0.99 3 2 C3.40843923 4.71203652 3.13336867 7.2437142 3 10 C2.01 10.495 2.01 10.495 1 11 C1 9.35 1 7.7 1 6 C0.34 6 -0.32 6 -1 6 C-0.67 4.02 -0.34 2.04 0 0 Z " fill="#19237B" transform="translate(229,281)"/>
<path d="M0 0 C1.32 0 2.64 0 4 0 C4 1.32 4 2.64 4 4 C2.02 4.66 0.04 5.32 -2 6 C-2.66 5.34 -3.32 4.68 -4 4 C-3.34 4 -2.68 4 -2 4 C-1.34 2.68 -0.68 1.36 0 0 Z " fill="#313889" transform="translate(209,277)"/>
<path d="M0 0 C1.91015625 0.1328125 1.91015625 0.1328125 3.91015625 1.1328125 C3.91015625 2.7828125 3.91015625 4.4328125 3.91015625 6.1328125 C3.58015625 4.8128125 3.25015625 3.4928125 2.91015625 2.1328125 C1.63140625 2.3390625 0.35265625 2.5453125 -0.96484375 2.7578125 C-3.14453125 3.109375 -3.14453125 3.109375 -5.08984375 3.1328125 C-5.74984375 2.4728125 -6.40984375 1.8128125 -7.08984375 1.1328125 C-5.19099279 -0.76603846 -2.51736472 0.00913744 0 0 Z " fill="#293087" transform="translate(226.08984375,285.8671875)"/>
<path d="M0 0 C3.5 0.1875 3.5 0.1875 5.5 1.1875 C5.5 2.1775 5.5 3.1675 5.5 4.1875 C3.829375 3.94 3.829375 3.94 2.125 3.6875 C-1.22032033 3.1419542 -1.22032033 3.1419542 -3.5 3.1875 C-4.16 2.8575 -4.82 2.5275 -5.5 2.1875 C-3.5 0.1875 -3.5 0.1875 0 0 Z " fill="#323A8A" transform="translate(270.5,276.8125)"/>
<path d="M0 0 C0.33 0.99 0.66 1.98 1 3 C2.65 3 4.3 3 6 3 C6 4.32 6 5.64 6 7 C4.35 7 2.7 7 1 7 C0.67 4.69 0.34 2.38 0 0 Z " fill="#51599B" transform="translate(286,274)"/>
<path d="M0 0 C1.32 0 2.64 0 4 0 C3.67 1.65 3.34 3.3 3 5 C1.68 5.33 0.36 5.66 -1 6 C-0.67 4.02 -0.34 2.04 0 0 Z " fill="#39418C" transform="translate(411,277)"/>
<path d="M0 0 C1.98 0.495 1.98 0.495 4 1 C3.67 2.32 3.34 3.64 3 5 C1.68 4.67 0.36 4.34 -1 4 C-0.67 2.68 -0.34 1.36 0 0 Z " fill="#3A418B" transform="translate(374,269)"/>
<path d="M0 0 C0.94875 0.495 1.8975 0.99 2.875 1.5 C5.72278166 3.14424369 5.72278166 3.14424369 8 3 C8 3.66 8 4.32 8 5 C5.125 5.125 5.125 5.125 2 5 C1.34 4.34 0.68 3.68 0 3 C0 2.01 0 1.02 0 0 Z " fill="#2A3486" transform="translate(189,295)"/>
<path d="M0 0 C0 3 0 3 -1.5 4.6875 C-1.995 5.120625 -2.49 5.55375 -3 6 C-2.67 6.66 -2.34 7.32 -2 8 C-3.32 8 -4.64 8 -6 8 C-5.65120368 4.74456771 -4.97866739 3.98126893 -2.4375 1.75 C-1.633125 1.1725 -0.82875 0.595 0 0 Z " fill="#3F468F" transform="translate(402,301)"/>
<path d="M0 0 C2.4375 0.375 2.4375 0.375 5 1 C5.33 1.66 5.66 2.32 6 3 C5.0625 5.125 5.0625 5.125 4 7 C4 6.34 4 5.68 4 5 C3.01 4.67 2.02 4.34 1 4 C0.3125 1.9375 0.3125 1.9375 0 0 Z " fill="#3E4591" transform="translate(306,277)"/>
<path d="M0 0 C1.32 0 2.64 0 4 0 C4 1.32 4 2.64 4 4 C2.35 4 0.7 4 -1 4 C-0.67 2.68 -0.34 1.36 0 0 Z " fill="#323989" transform="translate(327,277)"/>
<path d="M0 0 C1.65 0 3.3 0 5 0 C5 0.99 5 1.98 5 3 C2.36 3 -0.28 3 -3 3 C-2.01 2.67 -1.02 2.34 0 2 C0 1.34 0 0.68 0 0 Z " fill="#3D448F" transform="translate(221,297)"/>
<path d="M0 0 C1.65 0 3.3 0 5 0 C4.01 0.33 3.02 0.66 2 1 C1.67 2.65 1.34 4.3 1 6 C0.01 5.34 -0.98 4.68 -2 4 C-1.34 2.68 -0.68 1.36 0 0 Z " fill="#E3E5EE" transform="translate(269,280)"/>
<path d="M0 0 C0.66 0 1.32 0 2 0 C1.67 1.65 1.34 3.3 1 5 C-1.31 5 -3.62 5 -6 5 C-6 4.67 -6 4.34 -6 4 C-4.35 3.67 -2.7 3.34 -1 3 C-0.67 2.01 -0.34 1.02 0 0 Z " fill="#202A81" transform="translate(274,294)"/>
<path d="M0 0 C2.83967231 0 5.23735711 0.40267181 8 1 C5 2.5 5 2.5 2 4 C1.34 3.67 0.68 3.34 0 3 C0 2.01 0 1.02 0 0 Z " fill="#303886" transform="translate(338,278)"/>
</svg>
