<svg height="158.735158" viewBox="0 0 33.526291 8.360561" width="629.980158" xmlns="http://www.w3.org/2000/svg" xmlns:xlink="http://www.w3.org/1999/xlink"><clipPath id="a"><path d="m595 0h.27344v841.89062h-.27344zm0 0"/></clipPath><symbol id="b" overflow="visible"/><symbol id="c" overflow="visible"/><symbol id="d" overflow="visible"/><symbol id="e" overflow="visible"/><symbol id="f" overflow="visible"/><symbol id="g" overflow="visible"/><symbol id="h" overflow="visible"/><g clip-path="url(#a)" transform="matrix(.35277778 0 0 .35277778 -366.208187 690.259952)"><path d="m595.27734 841.89062h564.09376v-841.89062h-564.09376zm0 0" fill="#fff"/></g><use fill="#211e1e" height="100%" transform="matrix(.35277778 0 0 .35277778 -449.232622 606.33863)" width="100%" x="275.68951" xlink:href="#c" y="670.25177"/><use fill="#211e1e" height="100%" transform="matrix(.35277778 0 0 .35277778 -449.232622 606.33863)" width="100%" x="234.1707" xlink:href="#b" y="683.25177"/><g transform="matrix(.35277778 0 0 .35277778 -522.9492 573.17349)"><use fill="#4c4a4c" height="100%" width="100%" x="164.61571" xlink:href="#d" y="442.90091"/><use fill="#26429e" height="100%" width="100%" x="417.75229" xlink:href="#d" y="445.9014"/><use fill="#4c4a4c" height="100%" width="100%" x="556.6123" xlink:href="#e" y="476.9014"/><use fill="#26429e" height="100%" width="100%" x="462.56329" xlink:href="#d" y="507.9014"/><use fill="#4c4a4c" height="100%" width="100%" x="423.24231" xlink:href="#d" y="551.90143"/><use fill="#4c4a4c" height="100%" width="100%" x="418.25229" xlink:href="#d" y="582.90143"/><use fill="#4c4a4c" height="100%" width="100%" x="477.1933" xlink:href="#e" y="613.90143"/></g><use fill="#232830" height="100%" transform="matrix(.35277778 0 0 .35277778 -599.67204 541.71841)" width="100%" x="264.19571" xlink:href="#f" y="64.519897"/><use fill="#512685" height="100%" transform="matrix(.35277777 0 0 .35277777 -337.87389 387.46599)" width="100%" x="442.27939" xlink:href="#g" y="578.77972"/><use height="100%" transform="matrix(.35277778 0 0 .35277778 -200.17874 270.53856)" width="100%" x="211.22369" xlink:href="#h" y="218.392"/><g transform="translate(-405.217493 659.499698)"><path d="m405.52479-659.19102h32.89515v7.74319h-32.89515zm0 0" fill="#eb1923" fill-rule="evenodd"/><path d="m405.52617-659.19102h32.89377v7.7432h-32.89377zm0 0" fill="none" stroke="#fff" stroke-miterlimit="10" stroke-width=".352778"/><g fill-rule="evenodd"><path d="m422.12189-656.44873h1.14376c.41204 0 1.11484.38861 1.11484 1.25677 0 .86817-.73863 1.25815-1.11484 1.25815h-1.14376zm-1.52412-1.19751v4.92373h2.65686c1.12586 0 2.58658-.66973 2.58658-2.46118s-1.46072-2.46255-2.58658-2.46255zm0 0" fill="#211e1e"/><path d="m426.54952-652.72251v-4.92373h4.68258v1.27193h-3.22186v.6587h2.28892v1.19751h-2.28892v1.79559zm0 0" fill="#211e1e"/><path d="m414.54681-652.72251v-4.92373h1.4304v1.76664h2.18419v-1.76664h1.44556v4.92373h-1.44556v-1.93063h-2.18419v1.93063zm0 0" fill="#211e1e"/><path d="m433.00563-655.13546c0-.76894.56499-1.22232 1.60679-1.24299.61461.0152 1.16031.17363 1.57648.50436l.49196-1.25677c-.63114-.32246-1.55167-.51538-2.53422-.47404-1.68258.15296-2.58381.97565-2.70371 2.46944.1199 1.4938 1.02113 2.31786 2.70371 2.46945 1.14102.0648 2.04226-.19706 2.70234-.60634l-.7345-1.19752c-.41616.33073-.93155.50299-1.54753.51815-1.0418-.0207-1.56132-.41479-1.56132-1.18374" fill="#211e1e"/><path d="m421.85041-656.74363h1.14377c.41204 0 1.11484.38999 1.11484 1.25815s-.73863 1.25677-1.11484 1.25677h-1.14377zm-1.52411-1.19751v4.92511h2.65686c1.12586 0 2.58657-.67111 2.58657-2.46256s-1.46071-2.46255-2.58657-2.46255zm0 0" fill="#fff"/><path d="m426.27805-653.01603v-4.92511h4.68257v1.2733h-3.22185v.65871h2.28892v1.19613h-2.28892v1.79697zm0 0" fill="#fff"/><path d="m414.27534-653.01603v-4.92511h1.4304v1.76664h2.18419v-1.76664h1.44556v4.92511h-1.44556v-1.93064h-2.18419v1.93064zm0 0" fill="#fff"/><path d="m432.73416-655.42898c0-.77032.56499-1.2237 1.60679-1.24299.61598.0152 1.16168.17225 1.57648.50298l.49196-1.25539c-.63115-.32384-1.5503-.51676-2.53422-.47542-1.68258.15296-2.58382.97703-2.70371 2.47082.11989 1.49242 1.02113 2.31648 2.70371 2.46944 1.14102.0634 2.04226-.19705 2.70371-.60633l-.73587-1.1989c-.41617.33073-.93155.50299-1.54754.51815-1.0418-.0193-1.56131-.41341-1.56131-1.18236" fill="#fff"/><path d="m407.27215-657.94114h1.48276l.39826.39825v-.39825h3.32934v1.48277l-.39826.39825h.39826v3.33072h-1.48139l-.39826-.39826v.39826h-3.33071v-1.46624l.39825-.41479h-.39825zm0 0" fill="#211e1e"/><path d="m407.97357-654.54704h2.35782v1.11622h-2.35782zm0 0" fill="#fff"/><path d="m409.4081-657.23972h2.35783v1.11621h-2.35783zm0 0" fill="#fff"/><path d="m407.97357-657.23972h1.09967v2.42259h-1.09967zm0 0" fill="#eb1923"/><path d="m410.66625-655.85342h1.11621v2.4226h-1.11621zm0 0" fill="#fff"/><path d="m405.54133-659.19102h32.89377v7.7432h-32.89377zm0 0" fill="#eb1923" stroke="#fff" stroke-miterlimit="10" stroke-width=".352778"/><path d="m422.13704-656.44873h1.14515c.41066 0 1.11346.38861 1.11346 1.25677 0 .86817-.73725 1.25815-1.11346 1.25815h-1.14515zm-1.52273-1.19751v4.92373h2.65548c1.12586 0 2.58658-.66973 2.58658-2.46118s-1.46072-2.46255-2.58658-2.46255zm0 0" fill="#211e1e"/><path d="m426.56468-652.72251v-4.92373h4.68395v1.27193h-3.22323v.6587h2.28892v1.19751h-2.28892v1.79559zm0 0" fill="#211e1e"/><path d="m414.56197-652.72251v-4.92373h1.4304v1.76664h2.18419v-1.76664h1.44556v4.92373h-1.44556v-1.93063h-2.18419v1.93063zm0 0" fill="#211e1e"/><path d="m433.02079-655.13546c0-.76894.56637-1.22232 1.60679-1.24299.61598.0152 1.16169.17363 1.57785.50436l.49059-1.25677c-.63115-.32246-1.5503-.51538-2.53422-.47404-1.6812.15296-2.58244.97565-2.70233 2.46944.11989 1.4938 1.02113 2.31786 2.70233 2.46945 1.1424.0648 2.04226-.19706 2.70372-.60634l-.73588-1.19752c-.41617.33073-.93155.50299-1.54616.51815-1.04179-.0207-1.56269-.41479-1.56269-1.18374" fill="#211e1e"/><path d="m421.86557-656.74363h1.14515c.41203 0 1.11483.38999 1.11483 1.25815s-.73863 1.25677-1.11483 1.25677h-1.14515zm-1.52273-1.19751v4.92511h2.65548c1.12723 0 2.58657-.67111 2.58795-2.46256 0-1.79145-1.46072-2.46255-2.58795-2.46255zm0 0" fill="#fff"/><path d="m426.29321-653.01603v-4.92511h4.68395v1.2733h-3.22323v.65871h2.28892v1.19613h-2.28892v1.79697zm0 0" fill="#fff"/><path d="m414.29049-653.01603v-4.92511h1.43041v1.76664h2.18419v-1.76664h1.44556v4.92511h-1.44556v-1.93064h-2.18419v1.93064zm0 0" fill="#fff"/><path d="m432.74932-655.42898c0-.77032.56637-1.2237 1.60679-1.24299.61598.0152 1.16168.17225 1.57785.50298l.49196-1.25539c-.63114-.32384-1.55167-.51676-2.53421-.47542-1.68259.15296-2.58382.97703-2.70371 2.47082.11989 1.49242 1.02112 2.31648 2.70371 2.46944 1.14101.0634 2.04225-.19705 2.70233-.60633l-.73587-1.1989c-.41479.33073-.93018.50299-1.54616.51815-1.0418-.0193-1.56269-.41341-1.56269-1.18236" fill="#fff"/><path d="m407.28868-657.94114h1.48139l.39826.39825v-.39825h3.33071v1.48277l-.39825.39825h.39825v3.33072h-1.48139l-.39825-.39826v.39826h-3.33072v-1.46624l.39826-.41479h-.39826zm0 0" fill="#211e1e"/><path d="m407.98873-654.54704h2.3592v1.11622h-2.3592zm0 0" fill="#fff"/><path d="m409.42326-657.23972h2.3592v1.11621h-2.3592zm0 0" fill="#fff"/><path d="m407.98873-657.23972h1.09967v2.42259h-1.09967zm0 0" fill="#eb1923"/><path d="m410.68279-655.85342h1.11483v2.4226h-1.11483zm0 0" fill="#fff"/></g></g></svg>