<?xml version="1.0" encoding="UTF-8"?>
<svg version="1.1" xmlns="http://www.w3.org/2000/svg" width="674" height="150">
<path d="M0 0 C1.04913574 0.00491455 2.09827148 0.0098291 3.17919922 0.01489258 C27.72962189 0.38331896 50.46370663 9.6762125 67.9453125 26.98046875 C82.42422999 42.3021889 87.8410962 59.34561008 87.5234375 80.125 C86.85682448 98.1565523 77.83412122 113.82533509 65.25 126.3125 C46.68902923 143.50860699 21.46402938 151.22638969 -3.546875 150.55859375 C-29.15717903 149.34794673 -51.74816466 139.13206791 -69.65234375 120.72265625 C-82.0813253 106.44205733 -88.20967823 88.20854467 -86.95703125 69.36962891 C-84.97941317 49.71938138 -74.89874639 32.62355164 -59.9375 20 C-42.29290415 6.8427268 -22.04239448 -0.1233116 0 0 Z " fill="#1F4679" transform="translate(86.75,-0.3125)"/>
<path d="M0 0 C2.73782924 1.99348192 4.53853671 3.58859183 6.375 6.4453125 C7.1076265 11.2099464 6.91851931 15.66771063 6.375 20.4453125 C5.77171875 20.24035156 5.1684375 20.03539063 4.546875 19.82421875 C3.74765625 19.55480469 2.9484375 19.28539063 2.125 19.0078125 C1.33609375 18.74097656 0.5471875 18.47414063 -0.265625 18.19921875 C-10.23562757 15.01343978 -23.20343242 14.60383575 -32.76953125 19.23046875 C-36.07548479 21.39499833 -37.88893157 23.97317564 -39.625 27.4453125 C-40.02935212 32.27420993 -40.2690172 36.85221731 -38.4375 41.3828125 C-35.07365077 45.21064093 -31.82871179 48.26889988 -26.6484375 48.68359375 C-18.08449855 48.85780664 -12.250906 48.58978386 -5.76708984 42.78076172 C-0.8146521 37.8934382 3.34443054 32.73193619 7.375 27.0703125 C8.59369705 25.3896416 9.81373783 23.7099442 11.03515625 22.03125 C11.89971436 20.83967285 11.89971436 20.83967285 12.78173828 19.62402344 C15.8379755 15.44476188 19.00767913 11.38024554 22.375 7.4453125 C22.93058594 6.79433594 23.48617187 6.14335938 24.05859375 5.47265625 C29.36433169 -0.29871227 36.99123769 -5.05482525 44.94140625 -5.79296875 C52.31237138 -5.97556111 57.83978709 -4.99307478 64.375 -1.5546875 C65.01179688 -1.22726563 65.64859375 -0.89984375 66.3046875 -0.5625 C74.24928974 4.27488003 78.75558717 13.81665847 81.375 22.4453125 C81.375 23.4353125 81.375 24.4253125 81.375 25.4453125 C78.32043492 25.74477966 75.42129705 25.87097354 72.375 25.4453125 C69.5625 23.0703125 69.5625 23.0703125 67.375 20.4453125 C62.09111247 16.97064723 55.39475828 17.72789819 49.375 18.4453125 C38.39334473 22.3033214 31.60740955 32.64339734 25.0625 41.6953125 C5.04266051 69.3645235 5.04266051 69.3645235 -7.625 71.4453125 C-17.14417734 72.18078978 -25.693751 72.51122287 -33.625 66.4453125 C-41.40993252 59.6937781 -46.9315397 49.7333587 -47.80200195 39.32983398 C-48.19426285 24.84118562 -47.35380975 13.01282074 -37.625 1.4453125 C-26.66404792 -8.88424833 -12.06393762 -7.14501067 0 0 Z " fill="#FAFAFB" transform="translate(70.625,41.5546875)"/>
<path d="M0 0 C0.495 20.295 0.495 20.295 1 41 C5.56348004 34.46378168 5.56348004 34.46378168 10.12475586 27.92602539 C10.97372437 26.71160767 10.97372437 26.71160767 11.83984375 25.47265625 C12.42113037 24.64000244 13.00241699 23.80734863 13.60131836 22.94946289 C15 21 15 21 16 20 C17.70772358 19.91286169 19.41898649 19.89299993 21.12890625 19.90234375 C22.68061523 19.90717773 22.68061523 19.90717773 24.26367188 19.91210938 C25.35228516 19.92048828 26.44089844 19.92886719 27.5625 19.9375 C29.2012207 19.94426758 29.2012207 19.94426758 30.87304688 19.95117188 C33.58208495 19.96300174 36.29101599 19.97948457 39 20 C36.94370083 23.55330723 34.70461577 26.82518104 32.20703125 30.08203125 C31.49482422 31.01337891 30.78261719 31.94472656 30.04882812 32.90429688 C29.31083984 33.86400391 28.57285156 34.82371094 27.8125 35.8125 C26.68811523 37.28106445 26.68811523 37.28106445 25.54101562 38.77929688 C23.69631625 41.18798077 21.84924535 43.59480561 20 46 C24.60203478 53.36714893 29.40675404 60.54469087 34.4375 67.625 C35.68830871 69.38652392 36.93712777 71.14946297 38.18359375 72.9140625 C38.72556396 73.6767041 39.26753418 74.4393457 39.82592773 75.22509766 C41 77 41 77 41 78 C32.42 78 23.84 78 15 78 C10.38 69.75 5.76 61.5 1 53 C0.67 61.25 0.34 69.5 0 78 C-6.93 78 -13.86 78 -21 78 C-21 54.24 -21 30.48 -21 6 C-3 0 -3 0 0 0 Z " fill="#ED3237" transform="translate(214,36)"/>
<path d="M0 0 C0.495 19.8 0.495 19.8 1 40 C8.10797918 30.07452844 8.10797918 30.07452844 15 20 C17.56542969 19.31884766 17.56542969 19.31884766 20.421875 19.4140625 C21.44667969 19.43339844 22.47148437 19.45273437 23.52734375 19.47265625 C24.59082031 19.52292969 25.65429688 19.57320312 26.75 19.625 C27.82894531 19.65207031 28.90789062 19.67914063 30.01953125 19.70703125 C32.68171065 19.77770858 35.33984236 19.87631599 38 20 C36.57199551 23.07935236 34.86102711 25.66833881 32.8125 28.37109375 C32.19632812 29.19287109 31.58015625 30.01464844 30.9453125 30.86132812 C29.65031526 32.57628933 28.35344414 34.28983719 27.0546875 36.00195312 C26.43851562 36.82501953 25.82234375 37.64808594 25.1875 38.49609375 C24.62417969 39.24044678 24.06085938 39.9847998 23.48046875 40.75170898 C21.88667757 43.17209537 20.73931197 45.18978226 20 48 C20.79072163 50.15720635 20.79072163 50.15720635 22.40234375 52.07421875 C22.96026611 52.81994141 23.51818848 53.56566406 24.09301758 54.33398438 C24.70169678 55.11064453 25.31037598 55.88730469 25.9375 56.6875 C27.14873796 58.29534661 28.35967754 59.90341805 29.5703125 61.51171875 C30.16102539 62.28306152 30.75173828 63.0544043 31.36035156 63.84912109 C33.40274612 66.52831943 35.37004992 69.24752406 37.3125 72 C37.84488281 72.7425 38.37726563 73.485 38.92578125 74.25 C40 76 40 76 40 78 C18.48890478 80.04694544 18.48890478 80.04694544 13.12744141 76.90136719 C9.9138631 73.56645637 8.53528724 69.27851819 7 65 C5.86635648 62.87785937 4.70215405 60.77159551 3.5 58.6875 C2.675 57.140625 1.85 55.59375 1 54 C0.67 61.92 0.34 69.84 0 78 C-6.93 78 -13.86 78 -21 78 C-21 54.24 -21 30.48 -21 6 C-3 0 -3 0 0 0 Z " fill="#ED3237" transform="translate(448,36)"/>
<path d="M0 0 C5.66004033 5.37703831 8.7882408 11.24247614 10 19 C10.17616755 28.60113121 8.63035273 36.64937018 2.2421875 44.03125 C-6.35215489 52.2428484 -16.38998824 54.10700472 -28 54 C-37.0883151 53.28115022 -45.65041164 49.91045793 -51.9375 43.1875 C-58.45764587 34.85278523 -58.99269743 26.24093008 -58.25 15.98242188 C-57.31107495 8.53703967 -52.95705455 3.04615525 -47.24609375 -1.53125 C-33.13589171 -10.75809516 -13.29979281 -10.79149855 0 0 Z M-34.8125 12.4375 C-37.64674337 18.55349884 -37.87705399 24.36883802 -35.75 30.75 C-34.04175654 33.92245214 -32.91084467 35.89772329 -30 38 C-25.90936035 39.1577282 -23.43884443 39.11157062 -19.3125 38.0625 C-14.98450317 35.36770952 -13.38938432 32.85873451 -12 28 C-11.07930323 22.01072512 -11.70689566 16.91748816 -14.73046875 11.62890625 C-17.33005655 8.29343514 -20.44003805 7.23399429 -24.5 6.625 C-28.98988227 7.29848234 -32.08586306 8.77064343 -34.8125 12.4375 Z " fill="#ED3237" transform="translate(305,62)"/>
<path d="M0 0 C8.60981646 9.63479461 7.2854708 23.01253188 7.375 35.125 C7.40320386 37.05015655 7.43313734 38.97528858 7.46484375 40.90039062 C7.54138801 45.57966233 7.58239471 50.25730916 7.625 54.9375 C1.025 54.9375 -5.575 54.9375 -12.375 54.9375 C-12.87 51.4725 -12.87 51.4725 -13.375 47.9375 C-14.055625 48.700625 -14.73625 49.46375 -15.4375 50.25 C-21.16150884 55.48685915 -26.08976918 56.46129837 -33.6640625 56.22265625 C-40.46793477 55.50697516 -45.61420555 52.91972675 -50.375 47.9375 C-53.46776235 42.88072068 -53.77453339 38.05170185 -52.94921875 32.265625 C-51.5763971 26.69962701 -48.08845176 22.9750578 -43.375 19.9375 C-36.68782401 16.95661823 -30.55224212 16.55351431 -23.3125 16.75 C-22.35150391 16.76353516 -21.39050781 16.77707031 -20.40039062 16.79101562 C-18.05798248 16.82597694 -15.71680844 16.87503896 -13.375 16.9375 C-16.71132304 11.40752081 -16.71132304 11.40752081 -22.375 8.9375 C-30.3688244 8.23628733 -37.82842866 10.42197622 -45.375 12.9375 C-45.375 7.9875 -45.375 3.0375 -45.375 -2.0625 C-30.83837702 -8.74934657 -13.61627955 -8.32105972 0 0 Z M-31.375 30.9375 C-33.65638945 33.69448184 -33.65638945 33.69448184 -33.1875 36.5 C-32.54127558 39.27005117 -32.54127558 39.27005117 -29.375 40.9375 C-24.3455065 41.51465499 -22.36523766 41.54264524 -18 38.875 C-14.91600893 35.42386713 -14.24960474 33.39798418 -13.375 28.9375 C-20.04180946 26.71523018 -25.3661018 27.69269497 -31.375 30.9375 Z " fill="#ED3237" transform="translate(413.375,60.0625)"/>
<path d="M0 0 C0 6.6 0 13.2 0 20 C4.62 20 9.24 20 14 20 C14 24.95 14 29.9 14 35 C9.38 35 4.76 35 0 35 C0.14096618 38.89606521 0.28757847 42.79177784 0.4375 46.6875 C0.47681641 47.79029297 0.51613281 48.89308594 0.55664062 50.02929688 C0.61948242 51.6293457 0.61948242 51.6293457 0.68359375 53.26171875 C0.73858032 54.73064575 0.73858032 54.73064575 0.79467773 56.22924805 C0.97199044 59.39344689 0.97199044 59.39344689 2 64 C5.96 64.33 9.92 64.66 14 65 C14.72437834 68.62189172 15.11585593 71.23765264 15.0625 74.8125 C15.05347656 75.60269531 15.04445313 76.39289063 15.03515625 77.20703125 C15.02355469 77.79871094 15.01195312 78.39039062 15 79 C-5.68256764 80.75718715 -5.68256764 80.75718715 -14.375 76.25 C-18.67908133 72.56078743 -20.13196753 68.47071455 -21 63 C-21.07970902 60.79677398 -21.10772312 58.59136318 -21.09765625 56.38671875 C-21.09443359 55.13955078 -21.09121094 53.89238281 -21.08789062 52.60742188 C-21.07532227 50.66706055 -21.07532227 50.66706055 -21.0625 48.6875 C-21.05573242 46.71813477 -21.05573242 46.71813477 -21.04882812 44.70898438 C-21.03705949 41.4726099 -21.0206176 38.23632822 -21 35 C-24.63 35 -28.26 35 -32 35 C-32 30.05 -32 25.1 -32 20 C-28.04 20 -24.08 20 -20 20 C-20 15.38 -20 10.76 -20 6 C-17.23113877 4.99422987 -14.46015896 3.99519853 -11.6875 3 C-10.90181641 2.71382812 -10.11613281 2.42765625 -9.30664062 2.1328125 C-8.54931641 1.86210938 -7.79199219 1.59140625 -7.01171875 1.3125 C-5.96697388 0.93544922 -5.96697388 0.93544922 -4.90112305 0.55078125 C-3 0 -3 0 0 0 Z " fill="#ED3237" transform="translate(344,36)"/>
<path d="M0 0 C5.72237216 4.724284 8.31353016 9.87934957 10 17 C10.495 22.94 10.495 22.94 11 29 C-1.87 29 -14.74 29 -28 29 C-24.26487632 39.31836814 -24.26487632 39.31836814 -16.3125 44.3125 C-8.04570754 46.02824938 -1.36895936 43.68447968 6 40 C6 43.96 6 47.92 6 52 C-5.29303956 55.18862293 -15.96131929 57.12575555 -27 52 C-33.71850927 47.82268854 -37.0992133 42.61400845 -39 35 C-40.80248789 24.89271605 -40.38522575 15.37084876 -34.40625 6.75 C-26.13964585 -3.53732962 -11.63419485 -6.32662421 0 0 Z M-24 10 C-26.15038312 13.02248294 -28 16.22785617 -28 20 C-19.09 20 -10.18 20 -1 20 C-2.0271892 13.83686481 -2.75433819 12.24566181 -7 8 C-13.20101443 4.6726264 -18.56176573 5.96589999 -24 10 Z " fill="#1E4679" transform="translate(663,62)"/>
<path d="M0 0 C0.58929327 4.56702283 0.86831391 7.49260705 -1.46484375 11.54296875 C-6.81182411 18.37228031 -13.44692951 26.41652123 -22 29 C-34.94999681 30.30257278 -34.94999681 30.30257278 -39.625 27.25 C-40.40875 26.5075 -41.1925 25.765 -42 25 C-42.763125 24.319375 -43.52625 23.63875 -44.3125 22.9375 C-47.69877494 19.0495547 -47.34067832 14.63180439 -47.26953125 9.72265625 C-46.87849153 5.77258837 -45.72889329 3.86533795 -43 1 C-30.26921578 -8.57417584 -13.65946085 -6.75733045 0 0 Z " fill="#20477A" transform="translate(77,62)"/>
<path d="M0 0 C1.25425781 0.01804688 2.50851562 0.03609375 3.80078125 0.0546875 C5.22970703 0.08949219 5.22970703 0.08949219 6.6875 0.125 C6.6875 3.095 6.6875 6.065 6.6875 9.125 C4.47395833 9.28776042 2.26041667 9.45052083 0.046875 9.61328125 C-2.90690156 10.25391822 -4.23771939 10.90462075 -6.3125 13.125 C-7.23154654 16.53171671 -7.23154654 16.53171671 -7.5625 20.3125 C-7.81 22.560625 -8.0575 24.80875 -8.3125 27.125 C-3.3625 27.125 1.5875 27.125 6.6875 27.125 C6.6875 30.095 6.6875 33.065 6.6875 36.125 C1.7375 36.125 -3.2125 36.125 -8.3125 36.125 C-8.3125 51.305 -8.3125 66.485 -8.3125 82.125 C-11.9425 82.125 -15.5725 82.125 -19.3125 82.125 C-19.3125 66.945 -19.3125 51.765 -19.3125 36.125 C-23.2725 36.125 -27.2325 36.125 -31.3125 36.125 C-31.3125 33.155 -31.3125 30.185 -31.3125 27.125 C-27.3525 27.125 -23.3925 27.125 -19.3125 27.125 C-19.35375 25.660625 -19.395 24.19625 -19.4375 22.6875 C-19.40995259 16.19549396 -19.08424746 9.99188428 -15 4.6875 C-10.29354505 0.19994993 -6.38749172 -0.11939237 0 0 Z " fill="#1E4679" transform="translate(611.3125,33.875)"/>
<path d="M0 0 C1.9453125 -0.29296875 1.9453125 -0.29296875 4.125 -0.1875 C5.40375 -0.125625 6.6825 -0.06375 8 0 C7.95873211 9.51224849 4.63930522 16.72381637 -1.5 23.9375 C-8.68753242 29.86721425 -14.78346111 32.58666033 -24.12890625 32.37109375 C-33.01116744 31.22304639 -39.36475973 25.6020707 -45 19 C-47.28062828 15.57905758 -47.21925007 14.31812778 -47.125 10.3125 C-47.10695313 9.31863281 -47.08890625 8.32476562 -47.0703125 7.30078125 C-47.04710938 6.54152344 -47.02390625 5.78226562 -47 5 C-43.09425308 5.61669688 -39.99530755 6.86346537 -36.4375 8.5625 C-27.5987388 12.30406149 -19.23602896 12.05514809 -10.1953125 8.98828125 C-5.67622854 6.95388936 -2.75758536 4.13637805 0 0 Z " fill="#F8F9FB" transform="translate(144,82)"/>
<path d="M0 0 C3.63 0 7.26 0 11 0 C11 26.73 11 53.46 11 81 C7.37 81 3.74 81 0 81 C0 54.27 0 27.54 0 0 Z " fill="#1E4679" transform="translate(528,35)"/>
<path d="M0 0 C0.26396592 4.45718857 0.42206683 8.91234596 0.5625 13.375 C0.63791016 14.62667969 0.71332031 15.87835938 0.79101562 17.16796875 C0.9540734 24.0888654 0.58220165 28.21789078 -4.19140625 33.4375 C-5.78826959 34.96463338 -7.390739 36.48593662 -9 38 C-10.96235042 40.45675779 -12.73264152 43.02560586 -14.5 45.625 C-15.97532006 47.77132406 -17.4692181 49.89213762 -19 52 C-19.33 52 -19.66 52 -20 52 C-20 36.82 -20 21.64 -20 6 C-3 0 -3 0 0 0 Z " fill="#EA3338" transform="translate(97,18)"/>
<path d="M0 0 C1.65443767 2.89723906 2.23795121 4.89038082 2.13525391 8.21777344 C2.11508209 9.03832214 2.09491028 9.85887085 2.0741272 10.70428467 C2.02583267 12.01855438 2.02583267 12.01855438 1.9765625 13.359375 C1.95153656 14.26375305 1.92651062 15.1681311 1.90072632 16.09991455 C1.81866533 18.98366552 1.722022 21.86671739 1.625 24.75 C1.56674624 26.70700285 1.50944326 28.66403425 1.453125 30.62109375 C1.31310714 35.41446337 1.16001105 40.20725781 1 45 C-1.95670218 46.00486895 -4.91561577 47.00306024 -7.875 48 C-8.71675781 48.28617188 -9.55851562 48.57234375 -10.42578125 48.8671875 C-11.23144531 49.13789063 -12.03710938 49.40859375 -12.8671875 49.6875 C-13.98262939 50.06455078 -13.98262939 50.06455078 -15.12060547 50.44921875 C-17 51 -17 51 -19 51 C-20.73557038 24.79822742 -20.73557038 24.79822742 -17.08984375 19.11328125 C-14.54396538 16.48083515 -11.85601254 14.28718016 -9 12 C-7.1594905 9.86278367 -5.51389596 7.6063556 -3.875 5.3125 C-3.12992188 4.29800781 -2.38484375 3.28351563 -1.6171875 2.23828125 C-1.08351563 1.49964844 -0.54984375 0.76101562 0 0 Z " fill="#EA3339" transform="translate(96,82)"/>
<path d="M0 0 C3.63 0 7.26 0 11 0 C11 18.15 11 36.3 11 55 C7.37 55 3.74 55 0 55 C0 36.85 0 18.7 0 0 Z " fill="#1E4679" transform="translate(558,61)"/>
<path d="M0 0 C3.96 0 7.92 0 12 0 C12 3.96 12 7.92 12 12 C8.04 12 4.08 12 0 12 C0 8.04 0 4.08 0 0 Z " fill="#1E4679" transform="translate(557,37)"/>
</svg>
