<svg width="647" height="305" viewBox="0 0 647 305" fill="none" xmlns="http://www.w3.org/2000/svg">
<path d="M197.201 117.378C203.73 117.378 209.031 112.077 209.031 105.548C209.031 99.0184 203.73 93.7178 197.201 93.7178C190.672 93.7178 185.371 99.0184 185.371 105.548C185.371 112.077 190.672 117.378 197.201 117.378Z" fill="#B7669E"/>
<path d="M99.3759 114.22C105.905 114.22 111.206 108.92 111.206 102.39C111.206 95.8609 105.905 90.5604 99.3759 90.5604C92.8467 90.5604 87.5461 95.8609 87.5461 102.39C87.5461 108.92 92.8467 114.22 99.3759 114.22Z" fill="#6BB5CF"/>
<path d="M117.521 156.382H62.3005C59.9288 156.382 58 154.453 58 152.081C58 149.71 59.9288 147.781 62.3005 147.781H117.521C132.551 147.781 144.781 135.551 144.781 120.521V65.3005C144.781 62.9288 146.71 61 149.081 61C151.453 61 153.382 62.9288 153.382 65.3005V120.521C153.382 140.294 137.294 156.382 117.521 156.382Z" fill="#6BB5CF"/>
<path d="M119.107 135.88H70.187C67.8154 135.88 65.8866 133.951 65.8866 131.579C65.8866 129.207 67.8154 127.279 70.187 127.279H119.107C121.95 127.279 124.264 124.964 124.264 122.121V71.6297C124.264 69.258 126.193 67.3292 128.565 67.3292C130.937 67.3292 132.865 69.258 132.865 71.6297V122.121C132.865 129.707 126.693 135.894 119.092 135.894L119.107 135.88Z" fill="#6BB5CF"/>
<path d="M141.195 243.163C138.823 243.163 136.894 241.234 136.894 238.862V183.642C136.894 163.868 152.982 147.781 172.755 147.781H227.976C230.347 147.781 232.276 149.71 232.276 152.081C232.276 154.453 230.347 156.382 227.976 156.382H172.755C157.725 156.382 145.495 168.612 145.495 183.642V238.862C145.495 241.234 143.566 243.163 141.195 243.163Z" fill="#5A54BF"/>
<path d="M161.697 236.862C159.325 236.862 157.397 234.933 157.397 232.562V182.07C157.397 174.484 163.569 168.297 171.169 168.297H220.075C222.446 168.297 224.375 170.226 224.375 172.598C224.375 174.97 222.446 176.898 220.075 176.898H171.169C168.326 176.898 166.012 179.213 166.012 182.056V232.547C166.012 234.919 164.083 236.848 161.711 236.848L161.697 236.862Z" fill="#5A54BF"/>
<path d="M218.503 135.88H171.169C168.798 135.88 166.869 133.951 166.869 131.579V77.9304C166.869 75.5587 168.798 73.6299 171.169 73.6299C173.541 73.6299 175.47 75.5587 175.47 77.9304V127.279H218.503C220.875 127.279 222.804 129.207 222.804 131.579C222.804 133.951 220.875 135.88 218.503 135.88Z" fill="#B7669E"/>
<path d="M120.678 232.119C118.307 232.119 116.378 230.19 116.378 227.818V178.47H73.3445C70.9728 178.47 69.0441 176.541 69.0441 174.169C69.0441 171.798 70.9728 169.869 73.3445 169.869H120.678C123.05 169.869 124.979 171.798 124.979 174.169V227.818C124.979 230.19 123.05 232.119 120.678 232.119Z" fill="#D09247"/>
<path d="M192.472 215.202C199.001 215.202 204.302 209.902 204.302 203.373C204.302 196.843 199.001 191.543 192.472 191.543C185.943 191.543 180.642 196.843 180.642 203.373C180.642 209.902 185.943 215.202 192.472 215.202Z" fill="#5A54BF"/>
<path d="M94.6469 212.045C101.176 212.045 106.477 206.744 106.477 200.215C106.477 193.686 101.176 188.385 94.6469 188.385C88.1176 188.385 82.817 193.686 82.817 200.215C82.817 206.744 88.1176 212.045 94.6469 212.045Z" fill="#D09247"/>
<path d="M280.781 106.033C278.767 106.033 276.952 105.291 275.581 103.905C274.195 102.519 273.566 100.719 273.566 98.7041C273.566 96.6896 274.209 94.8751 275.581 93.5035C276.967 92.1177 278.767 91.3747 280.781 91.3747C282.796 91.3747 284.61 92.1177 285.882 93.5035C287.268 94.8894 288.011 96.6896 288.011 98.7041C288.011 100.719 287.268 102.533 285.882 103.905C284.496 105.291 282.796 106.033 280.781 106.033ZM286.096 196.043C286.096 201.787 284.61 206.03 281.739 208.802C278.867 211.559 274.509 212.845 268.88 212.845H262.608V203.701H267.18C270.152 203.701 272.28 203.058 273.452 201.901C274.724 200.729 275.367 198.715 275.367 195.843V116.577H286.211L286.111 196.058L286.096 196.043ZM334.344 182.856C328.187 182.856 322.657 181.47 317.657 178.713C312.771 175.955 308.842 172.012 305.97 166.912C303.212 161.711 301.827 155.753 301.827 149.052C301.827 142.352 303.212 136.508 306.084 131.408C309.056 126.307 312.985 122.378 317.985 119.606C322.986 116.835 328.615 115.463 334.773 115.463C340.931 115.463 346.574 116.849 351.561 119.606C356.561 122.264 360.49 126.193 363.362 131.293C366.334 136.394 367.719 142.237 367.719 149.038C367.719 155.839 366.234 161.682 363.147 166.897C360.176 171.998 356.232 175.927 351.146 178.699C346.146 181.456 340.516 182.842 334.359 182.842L334.344 182.856ZM334.344 173.398C338.273 173.398 341.888 172.441 345.288 170.64C348.689 168.84 351.446 166.069 353.475 162.454C355.604 158.839 356.661 154.382 356.661 149.167C356.661 143.952 355.604 139.494 353.575 135.88C351.561 132.265 348.789 129.507 345.503 127.807C342.202 126.007 338.602 125.05 334.659 125.05C330.715 125.05 327.001 126.007 323.715 127.807C320.429 129.507 317.871 132.265 315.857 135.88C313.842 139.494 312.885 143.952 312.885 149.167C312.885 154.382 313.842 158.939 315.757 162.668C317.771 166.283 320.329 169.04 323.615 170.855C326.901 172.555 330.415 173.412 334.344 173.412V173.398ZM407.667 171.812L427.855 116.549H439.441L413.839 181.799H401.194L375.577 116.549H387.264C387.364 116.549 407.667 171.812 407.667 171.812ZM511.049 146.724C511.049 148.738 510.949 150.967 510.735 153.31H458.558C458.986 159.682 461.115 164.783 465.144 168.397C469.188 172.012 474.074 173.712 479.803 173.712C484.475 173.712 488.404 172.655 491.49 170.526C494.676 168.297 496.905 165.426 498.177 161.711H509.863C508.163 167.983 504.649 173.084 499.348 177.113C494.148 181.042 487.661 182.956 479.789 182.956C473.631 182.956 468.102 181.57 463.101 178.813C458.315 176.055 454.5 172.112 451.629 167.012C448.871 161.811 447.485 155.853 447.485 149.152C447.485 142.452 448.871 136.508 451.529 131.408C454.186 126.307 458.015 122.478 462.787 119.721C467.673 116.963 473.302 115.577 479.689 115.577C486.075 115.577 491.376 116.963 496.162 119.621C500.948 122.278 504.563 125.993 507.106 130.779C509.763 135.451 511.035 140.766 511.035 146.724H511.049ZM499.891 144.495C499.891 140.351 498.934 136.837 497.134 133.865C495.333 130.893 492.776 128.55 489.59 127.064C486.504 125.464 483.003 124.721 479.274 124.721C473.86 124.721 469.073 126.421 465.244 129.922C461.415 133.422 459.287 138.208 458.658 144.48H499.891V144.495ZM555.254 182.856C549.096 182.856 543.567 181.47 538.567 178.713C533.68 175.955 529.751 172.012 526.88 166.912C524.122 161.711 522.736 155.753 522.736 149.052C522.736 142.352 524.122 136.508 526.994 131.408C529.966 126.307 533.895 122.378 538.895 119.606C543.881 116.849 549.525 115.463 555.683 115.463C561.841 115.463 567.484 116.849 572.47 119.606C577.471 122.264 581.4 126.193 584.272 131.293C587.243 136.394 588.629 142.237 588.629 149.038C588.629 155.839 587.143 161.682 584.057 166.897C581.085 171.998 577.157 175.927 572.056 178.699C566.955 181.456 561.426 182.842 555.268 182.842L555.254 182.856ZM555.254 173.398C559.183 173.398 562.798 172.441 566.198 170.64C569.599 168.84 572.356 166.069 574.385 162.454C576.514 158.839 577.571 154.382 577.571 149.167C577.571 143.952 576.514 139.494 574.485 135.88C572.47 132.265 569.699 129.507 566.413 127.807C563.112 126.007 559.512 125.05 555.568 125.05C551.625 125.05 547.911 126.007 544.624 127.807C541.324 129.507 538.781 132.265 536.766 135.88C534.752 139.494 533.795 143.952 533.795 149.167C533.795 154.382 534.752 158.939 536.666 162.668C538.681 166.283 541.238 169.04 544.524 170.855C547.71 172.555 551.325 173.412 555.254 173.412V173.398Z" fill="#202058"/>
</svg>
